<svg width="657" height="62" viewBox="0 0 657 62" fill="none" xmlns="http://www.w3.org/2000/svg">
<path d="M76.224 45.504H64.32L61.824 60H43.584L54.144 0H82.944C93.824 0 99.264 5.056 99.264 15.168C99.264 19.968 98.592 24.32 97.248 28.224C95.904 32.064 94.4 35.136 92.736 37.44C91.136 39.68 88.896 41.6 86.016 43.2C83.2 44.736 79.936 45.504 76.224 45.504ZM71.232 30.144C73.408 30.144 75.04 29.92 76.128 29.472C77.28 28.96 78.016 27.84 78.336 26.112C79.168 21.376 79.584 18.784 79.584 18.336C79.584 17.12 79.104 16.32 78.144 15.936C77.184 15.552 75.744 15.36 73.824 15.36H69.6L67.008 30.144H71.232ZM40.704 59.712L0 55.392H41.472L40.704 59.712ZM43.968 41.184L3.264 36.864H44.736L43.968 41.184ZM47.136 22.752L6.528 18.432H47.904L47.136 22.752ZM48.768 13.536L8.16 9.216H49.536L48.768 13.536ZM42.336 50.4L1.632 46.08H43.104L42.336 50.4ZM50.4 4.32L9.792 0H51.168L50.4 4.32ZM45.504 31.968L4.896 27.648H46.272L45.504 31.968ZM150.581 9.216C159.925 9.216 164.597 13.44 164.597 21.888C164.597 25.728 163.829 29.728 162.293 33.888C160.757 37.984 158.165 41.056 154.517 43.104L159.989 60H142.037L138.389 45.216H136.085L133.493 60H117.365L126.197 9.216H150.581ZM147.029 25.824C147.029 25.76 147.061 25.44 147.125 24.864C147.125 23.776 145.429 23.232 142.037 23.232H139.925L138.389 32.064H141.461C144.405 32.064 146.069 31.104 146.453 29.184L147.029 25.824ZM114.197 59.712L73.4932 55.392H114.965L114.197 59.712ZM117.461 41.184L76.7572 36.864H118.229L117.461 41.184ZM119.093 31.968L78.3892 27.648H119.861L119.093 31.968ZM120.725 22.752L80.0212 18.432H121.493L120.725 22.752ZM122.357 13.536L81.6532 9.216H123.029L122.357 13.536ZM115.829 50.4L75.1252 46.08H116.597L115.829 50.4ZM186.649 41.184L145.945 36.864H187.417L186.649 41.184ZM188.281 31.968L147.577 27.648H189.049L188.281 31.968ZM189.913 22.752L149.209 18.432H190.681L189.913 22.752ZM191.545 13.536L150.841 9.216H192.217L191.545 13.536ZM186.265 46.08V48C186.265 49.088 186.297 49.888 186.361 50.4L145.657 46.08H186.265ZM190.009 59.712L149.305 55.392H187.225C187.929 57.184 188.857 58.624 190.009 59.712ZM209.689 46.56C211.417 46.56 212.601 46.368 213.241 45.984C213.945 45.536 214.425 44.512 214.681 42.912L220.729 9.216H236.857L231.865 37.824C230.329 46.784 227.833 52.928 224.377 56.256C220.985 59.52 215.161 61.152 206.905 61.152C200.313 61.152 195.705 60.192 193.081 58.272C190.457 56.288 189.145 52.864 189.145 48C189.145 45.312 189.497 41.92 190.201 37.824L195.289 9.216H211.417L204.889 46.56H209.689ZM290.383 39.36H276.079L274.927 45.888H292.687L290.191 60H256.303L265.135 9.216H298.927L294.415 23.616H278.767L277.615 30.144H292.015L290.383 39.36ZM253.135 59.712L212.431 55.392H253.903L253.135 59.712ZM256.399 41.184L215.695 36.864H257.167L256.399 41.184ZM258.031 31.968L217.327 27.648H258.799L258.031 31.968ZM259.663 22.752L218.959 18.432H260.431L259.663 22.752ZM261.295 13.536L220.591 9.216H261.967L261.295 13.536ZM254.767 50.4L214.063 46.08H255.535L254.767 50.4ZM354.055 9.216C361.351 9.216 364.999 12.224 364.999 18.24C364.999 21.568 364.199 24.576 362.599 27.264C361.063 29.952 359.175 31.808 356.935 32.832L356.839 33.408C361.063 34.752 363.175 37.664 363.175 42.144C363.175 47.776 361.639 52.16 358.567 55.296C355.559 58.432 350.983 60 344.839 60H319.303L328.135 9.216H354.055ZM344.839 40.32H338.887L337.639 47.424H343.591C345.831 47.424 346.951 45.792 346.951 42.528C346.951 41.056 346.247 40.32 344.839 40.32ZM347.335 21.408H342.151L341.095 27.552H346.375C348.295 27.552 349.255 26.144 349.255 23.328C349.255 22.048 348.615 21.408 347.335 21.408ZM316.231 59.712L275.527 55.392H316.999L316.231 59.712ZM319.495 41.184L278.791 36.864H320.263L319.495 41.184ZM321.127 31.968L280.423 27.648H321.895L321.127 31.968ZM322.759 22.752L282.055 18.432H323.527L322.759 22.752ZM324.391 13.536L283.687 9.216H325.063L324.391 13.536ZM317.863 50.4L277.159 46.08H318.631L317.863 50.4ZM418.746 60L418.362 52.224H406.266L403.29 60H386.682L407.994 9.216H431.802L435.546 60H418.746ZM418.362 38.496V23.904H417.018L411.354 38.496H418.362ZM383.61 59.616L344.25 55.392H385.434L383.61 59.616ZM387.546 50.304L348.186 46.08H389.37L387.546 50.304ZM391.482 41.088L352.122 36.864H393.21L391.482 41.088ZM395.322 31.872L356.058 27.648H397.146L395.322 31.872ZM399.258 22.656L359.994 18.432H400.986L399.258 22.656ZM403.098 13.344L363.93 9.216H404.826L403.098 13.344ZM478.632 60H459.432L484.68 0H512.904L517.128 60H497.832L497.448 50.496H482.376L478.632 60ZM496.008 35.232V18.432H495.048L488.328 35.232H496.008ZM456.36 59.616L417 55.392H458.184L456.36 59.616ZM460.296 50.304L420.936 46.08H462.12L460.296 50.304ZM464.232 41.088L424.872 36.864H465.96L464.232 41.088ZM468.072 31.872L428.808 27.648H469.896L468.072 31.872ZM472.008 22.656L432.744 18.432H473.736L472.008 22.656ZM479.784 4.128L440.616 0H481.512L479.784 4.128ZM475.848 13.344L436.68 9.216H477.576L475.848 13.344ZM479.784 4.128L481.512 0H440.616L479.784 4.128ZM569.792 48.096H560.48L558.368 60H542.24L551.072 9.216H575.456C584.736 9.216 589.376 13.6 589.376 22.368C589.376 26.336 588.8 29.984 587.648 33.312C586.496 36.64 585.248 39.264 583.904 41.184C582.56 43.104 580.64 44.736 578.144 46.08C575.712 47.424 572.928 48.096 569.792 48.096ZM571.904 25.824C571.904 25.76 571.936 25.568 572 25.248C572 23.904 570.624 23.232 567.872 23.232H564.8L562.784 35.136H565.76C567.232 35.136 568.384 34.976 569.216 34.656C570.048 34.272 570.56 33.504 570.752 32.352L571.904 25.824ZM539.072 59.712L498.368 55.392H539.84L539.072 59.712ZM542.336 41.184L501.632 36.864H543.104L542.336 41.184ZM543.968 31.968L503.264 27.648H544.736L543.968 31.968ZM545.6 22.752L504.896 18.432H546.368L545.6 22.752ZM547.232 13.536L506.528 9.216H547.904L547.232 13.536ZM540.704 50.4L500 46.08H541.472L540.704 50.4ZM636.542 48.096H627.23L625.118 60H608.99L617.822 9.216H642.206C651.486 9.216 656.126 13.6 656.126 22.368C656.126 26.336 655.55 29.984 654.398 33.312C653.246 36.64 651.998 39.264 650.654 41.184C649.31 43.104 647.39 44.736 644.894 46.08C642.462 47.424 639.678 48.096 636.542 48.096ZM638.654 25.824C638.654 25.76 638.686 25.568 638.75 25.248C638.75 23.904 637.374 23.232 634.622 23.232H631.55L629.534 35.136H632.51C633.982 35.136 635.134 34.976 635.966 34.656C636.798 34.272 637.31 33.504 637.502 32.352L638.654 25.824ZM605.822 59.712L565.118 55.392H606.59L605.822 59.712ZM609.086 41.184L568.382 36.864H609.854L609.086 41.184ZM610.718 31.968L570.014 27.648H611.486L610.718 31.968ZM612.35 22.752L571.646 18.432H613.118L612.35 22.752ZM613.982 13.536L573.278 9.216H614.654L613.982 13.536ZM607.454 50.4L566.75 46.08H608.222L607.454 50.4Z" fill="#3880FF"/>
</svg>
